<svg width="88" height="13" viewBox="0 0 88 13" fill="none" xmlns="http://www.w3.org/2000/svg">
<path d="M0.960938 9.88477C0.83724 9.75456 0.76237 9.57227 0.736328 9.33789C0.716797 9.11654 0.866536 9.00586 1.18555 9.00586C1.32878 9.00586 1.46549 9.02214 1.5957 9.05469C1.8431 9.10026 2.11003 9.12305 2.39648 9.12305C2.57227 9.12305 2.75781 9.11328 2.95312 9.09375C3.14193 9.07422 3.33398 9.04492 3.5293 9.00586C4.08919 8.87565 4.65234 8.70964 5.21875 8.50781C5.78516 8.3125 6.3418 8.09115 6.88867 7.84375C7.43555 7.58984 7.95964 7.3099 8.46094 7.00391C8.96875 6.69141 9.4375 6.35612 9.86719 5.99805C10.7917 5.23633 11.5501 4.58203 12.1426 4.03516C12.7415 3.48828 13.1908 3.03906 13.4902 2.6875C13.7962 2.34896 14.0469 2.05273 14.2422 1.79883C14.3529 1.66862 14.457 1.54818 14.5547 1.4375C14.6523 1.32682 14.7337 1.22917 14.7988 1.14453C15.4108 0.623698 15.9056 0.363281 16.2832 0.363281C16.7129 0.363281 16.9277 0.571615 16.9277 0.988281C16.9277 1.0599 16.9147 1.13151 16.8887 1.20312C16.8236 1.54818 16.7096 1.75977 16.5469 1.83789C16.319 1.95508 16.1107 2.08529 15.9219 2.22852C15.7331 2.36523 15.5736 2.4987 15.4434 2.62891C14.4473 3.64453 13.2721 4.78711 11.918 6.05664C11.2474 6.68815 10.5605 7.27083 9.85742 7.80469C9.16081 8.33854 8.44466 8.82031 7.70898 9.25C6.98633 9.67318 6.27669 9.9987 5.58008 10.2266C4.88346 10.4609 4.21289 10.5977 3.56836 10.6367C3.50977 10.6432 3.44792 10.6465 3.38281 10.6465C3.3112 10.6465 3.24609 10.6465 3.1875 10.6465C2.09375 10.6465 1.35156 10.3926 0.960938 9.88477ZM17.6211 9.80664C17.1914 9.77409 16.9766 9.54622 16.9766 9.12305C16.9766 8.83659 17.1393 8.61198 17.4648 8.44922V8.45898C18.3893 7.98372 19.2454 7.34245 20.0332 6.53516C20.821 5.72135 21.5436 4.74154 22.2012 3.5957C22.39 3.32227 22.6406 3.20182 22.9531 3.23438C23.2656 3.25391 23.5521 3.69661 23.8125 4.5625C24.0729 5.48698 24.291 5.99154 24.4668 6.07617C24.6426 6.1543 24.9941 6.19336 25.5215 6.19336V8C24.7142 8.02604 24.151 7.90234 23.832 7.62891C23.5195 7.32292 23.2624 6.62956 23.0605 5.54883C23.0215 5.41211 22.9727 5.30143 22.9141 5.2168C22.8555 5.13216 22.7871 5.08659 22.709 5.08008C22.6504 5.17773 22.543 5.34701 22.3867 5.58789C22.2305 5.82878 22.0156 6.14779 21.7422 6.54492C21.4688 6.93555 21.0781 7.37174 20.5703 7.85352C20.0625 8.33529 19.4668 8.83333 18.7832 9.34766C18.3926 9.66667 18.0085 9.81966 17.6309 9.80664H17.6211ZM25.2285 6.19336C26.0358 6.19336 26.8366 6.07943 27.6309 5.85156C28.4251 5.61719 29.2617 5.26562 30.1406 4.79688C30.2122 4.77083 30.3066 4.75781 30.4238 4.75781C30.5605 4.75781 30.6745 4.79036 30.7656 4.85547C30.8568 4.92057 30.9251 5.00521 30.9707 5.10938C31.0228 5.21354 31.0618 5.33073 31.0879 5.46094C31.1139 5.59115 31.127 5.71484 31.127 5.83203C31.1074 6.06641 30.9447 6.30404 30.6387 6.54492C30.3783 6.70117 30.0983 6.88021 29.7988 7.08203C29.4993 7.27734 29.1836 7.49219 28.8516 7.72656C28.5391 7.95443 28.2298 8.20508 27.9238 8.47852C27.6243 8.75846 27.3509 9.05143 27.1035 9.35742C27.0384 9.43555 26.9896 9.52995 26.957 9.64062C26.9245 9.7513 26.9082 9.86523 26.9082 9.98242C26.9082 10.0931 26.931 10.1842 26.9766 10.2559C27.0286 10.3275 27.11 10.3633 27.2207 10.3633C27.377 10.3633 27.5169 10.3014 27.6406 10.1777C27.7643 10.0605 27.9206 9.88802 28.1094 9.66016C28.6562 9.10026 29.1868 8.56315 29.7012 8.04883C30.222 7.54102 30.7428 7.09831 31.2637 6.7207H31.2539C31.5013 6.54492 31.7747 6.41797 32.0742 6.33984C32.3802 6.26172 32.6829 6.21289 32.9824 6.19336H33.7734V8H33.3926C32.2988 8 31.4915 8.14974 30.9707 8.44922C30.7038 8.59245 30.4727 8.72917 30.2773 8.85938C30.0885 8.99609 29.9095 9.13607 29.7402 9.2793C29.5775 9.42904 29.4147 9.59505 29.252 9.77734C29.0957 9.95964 28.9134 10.1712 28.7051 10.4121C28.3079 10.8613 28.0443 11.151 27.9141 11.2812C27.7578 11.4245 27.5918 11.5384 27.416 11.623C27.2467 11.7077 27.0612 11.75 26.8594 11.75C26.6315 11.75 26.4395 11.7012 26.2832 11.6035C26.127 11.5059 26 11.3789 25.9023 11.2227C25.8047 11.0729 25.7331 10.9036 25.6875 10.7148C25.6484 10.5326 25.6289 10.347 25.6289 10.1582C25.6289 9.89128 25.668 9.64714 25.7461 9.42578C25.8307 9.21094 25.9382 9.0026 26.0684 8.80078C26.3223 8.51432 26.5957 8.25716 26.8887 8.0293C27.1882 7.80143 27.4876 7.57682 27.7871 7.35547C27.8001 7.34245 27.8229 7.32617 27.8555 7.30664C27.5755 7.44336 27.3281 7.55729 27.1133 7.64844C26.9049 7.73307 26.7064 7.80143 26.5176 7.85352C26.3288 7.9056 26.1367 7.94466 25.9414 7.9707C25.7461 7.99023 25.528 8 25.2871 8L25.2285 6.19336ZM33.4707 6.19336C33.7572 6.19336 34.0208 6.17057 34.2617 6.125C34.5091 6.07292 34.7305 5.98177 34.9258 5.85156C35.0755 5.69531 35.1992 5.50651 35.2969 5.28516C35.401 5.05729 35.4499 4.8099 35.4434 4.54297C35.4303 3.92448 35.6615 3.60547 36.1367 3.58594C36.5729 3.55339 36.9928 3.77474 37.3965 4.25C37.7871 4.71224 37.9629 5.25911 37.9238 5.89062C37.722 6.67188 37.084 7.23503 36.0098 7.58008C35.4694 7.74284 34.9876 7.85352 34.5645 7.91211C34.1413 7.9707 33.7767 8 33.4707 8V6.19336ZM37.5332 11.2812C37.8001 11.1641 38.1126 10.9753 38.4707 10.7148C38.8288 10.4609 39.2292 10.1419 39.6719 9.75781C40.1146 9.38021 40.5898 8.94401 41.0977 8.44922C41.6055 7.96094 42.1458 7.42383 42.7188 6.83789C43.0898 6.43424 43.4089 6.125 43.6758 5.91016C43.9427 5.69531 44.1543 5.58789 44.3105 5.58789C44.7598 5.58138 45.0332 5.79297 45.1309 6.22266C45.1764 6.42448 45.1471 6.61979 45.043 6.80859C44.9453 6.99089 44.7956 7.15039 44.5938 7.28711C44.138 7.59961 43.6855 7.94141 43.2363 8.3125C42.7936 8.68359 42.3672 9.07422 41.957 9.48438C40.4401 10.9492 39.278 11.8086 38.4707 12.0625C38.2298 12.1341 38.015 12.1862 37.8262 12.2188C37.6309 12.2513 37.4518 12.2676 37.2891 12.2676C36.9375 12.2676 36.7617 12.1764 36.7617 11.9941C36.7617 11.7793 37.0189 11.5417 37.5332 11.2812ZM44.9355 10.8613C45.2025 10.8418 45.4954 10.793 45.8145 10.7148C46.14 10.6367 46.4655 10.5358 46.791 10.4121C47.1165 10.2884 47.4355 10.1387 47.748 9.96289C48.0605 9.79362 48.3405 9.60482 48.5879 9.39648C48.8353 9.19466 49.0339 8.97656 49.1836 8.74219C49.3333 8.50781 49.4082 8.26042 49.4082 8C49.1608 7.94792 48.9753 7.85352 48.8516 7.7168C48.7279 7.58008 48.6367 7.42708 48.5781 7.25781C48.526 7.08854 48.5 6.91602 48.5 6.74023C48.5065 6.56445 48.5228 6.41471 48.5488 6.29102C48.5879 6.01758 48.6725 5.7474 48.8027 5.48047C48.9329 5.20703 49.0957 4.96289 49.291 4.74805C49.4928 4.5332 49.7207 4.36068 49.9746 4.23047C50.235 4.09375 50.515 4.02539 50.8145 4.02539C51.5697 4.02539 51.9473 4.58203 51.9473 5.69531C51.9473 5.74089 51.9473 5.8125 51.9473 5.91016C51.9473 6.0013 51.9408 6.08594 51.9277 6.16406C51.9863 6.17708 52.0742 6.18685 52.1914 6.19336C52.3086 6.19336 52.4779 6.19336 52.6992 6.19336V8H51.4297C50.0495 10.4349 48.0312 11.7044 45.375 11.8086C44.6133 11.7695 44.2878 11.571 44.3984 11.2129C44.418 10.9915 44.597 10.8743 44.9355 10.8613ZM52.5234 6.19336C52.7708 6.18685 53.0378 6.14779 53.3242 6.07617C53.6172 6.00456 53.9004 5.91016 54.1738 5.79297C54.4277 5.66927 54.6654 5.53255 54.8867 5.38281C55.1146 5.22656 55.2969 5.06055 55.4336 4.88477C55.5768 4.70247 55.6973 4.51367 55.7949 4.31836C55.8991 4.11654 55.9837 3.91797 56.0488 3.72266H56.1953C56.4297 3.72266 56.6217 3.8431 56.7715 4.08398C56.9082 4.30534 56.9766 4.53971 56.9766 4.78711C56.9766 4.9043 56.9603 4.9987 56.9277 5.07031V5.06055C56.6738 5.84831 56.1042 6.54167 55.2188 7.14062C54.763 7.44661 54.3105 7.67122 53.8613 7.81445C53.4186 7.95117 52.9727 8.01302 52.5234 8V6.19336ZM53.4609 11.2617C53.5 10.8906 53.8581 10.4512 54.5352 9.94336C55.1862 9.49414 55.7135 9.22396 56.1172 9.13281C56.1953 9.11979 56.2637 9.11003 56.3223 9.10352C56.3874 9.10352 56.4557 9.10352 56.5273 9.10352C57.0091 9.10352 57.377 9.37695 57.6309 9.92383L57.6211 9.91406C57.6862 10.0443 57.7188 10.2038 57.7188 10.3926C57.7188 10.7507 57.582 11.1283 57.3086 11.5254C57.1654 11.7272 57.0059 11.8997 56.8301 12.043C56.6543 12.1927 56.459 12.3066 56.2441 12.3848C56.0749 12.4629 55.9316 12.502 55.8145 12.502C55.3978 12.502 55.1895 12.3066 55.1895 11.916C55.1895 11.8704 55.2057 11.8216 55.2383 11.7695C55.362 11.6784 55.4727 11.6068 55.5703 11.5547C55.6745 11.5026 55.7754 11.4701 55.873 11.457C56.2832 11.2096 56.4883 10.9883 56.4883 10.793C56.4883 10.5716 56.3581 10.4382 56.0977 10.3926C56.026 10.3665 55.9414 10.3633 55.8438 10.3828C55.7526 10.4089 55.6484 10.4479 55.5312 10.5V10.4805C55.2188 10.6497 54.9681 10.9362 54.7793 11.3398C54.6621 11.5872 54.5352 11.7728 54.3984 11.8965C54.2617 12.0267 54.1087 12.082 53.9395 12.0625C53.5814 12.056 53.4219 11.7826 53.4609 11.2422V11.2617ZM62.0938 9.80664C61.6641 9.77409 61.4492 9.54622 61.4492 9.12305C61.4492 8.83659 61.612 8.61198 61.9375 8.44922V8.45898C62.862 7.98372 63.7181 7.34245 64.5059 6.53516C65.2936 5.72135 66.0163 4.74154 66.6738 3.5957C66.8626 3.32227 67.1133 3.20182 67.4258 3.23438C67.7383 3.25391 68.0247 3.69661 68.2852 4.5625C68.5456 5.48698 68.7637 5.99154 68.9395 6.07617C69.1152 6.1543 69.4668 6.19336 69.9941 6.19336V8C69.1868 8.02604 68.6237 7.90234 68.3047 7.62891C67.9922 7.32292 67.735 6.62956 67.5332 5.54883C67.4941 5.41211 67.4453 5.30143 67.3867 5.2168C67.3281 5.13216 67.2598 5.08659 67.1816 5.08008C67.123 5.17773 67.0156 5.34701 66.8594 5.58789C66.7031 5.82878 66.4883 6.14779 66.2148 6.54492C65.9414 6.93555 65.5508 7.37174 65.043 7.85352C64.5352 8.33529 63.9395 8.83333 63.2559 9.34766C62.8652 9.66667 62.4811 9.81966 62.1035 9.80664H62.0938ZM69.7695 6.19336H70.1406C70.3164 6.19336 70.4727 6.17383 70.6094 6.13477C70.7526 6.08919 70.8796 6.01107 70.9902 5.90039C71.1204 5.74414 71.2507 5.5944 71.3809 5.45117C71.5111 5.30794 71.6348 5.17448 71.752 5.05078C71.9603 4.82292 72.1751 4.70898 72.3965 4.70898C72.4681 4.70898 72.5527 4.72526 72.6504 4.75781C72.7546 4.78385 72.8587 4.82617 72.9629 4.88477C73.0671 4.94336 73.168 5.01172 73.2656 5.08984C73.3698 5.16797 73.4577 5.2526 73.5293 5.34375C73.8418 5.63672 74.1185 5.8418 74.3594 5.95898C74.6068 6.07617 74.8542 6.1543 75.1016 6.19336H76.0293V8C75.222 8 74.6035 7.84049 74.1738 7.52148C74.1999 7.65169 74.1934 7.78841 74.1543 7.93164C74.1152 8.06836 74.0566 8.17578 73.9785 8.25391C73.8418 8.41016 73.6921 8.52409 73.5293 8.5957C73.373 8.66732 73.194 8.70312 72.9922 8.70312C72.8424 8.66406 72.6992 8.5599 72.5625 8.39062C72.4258 8.22135 72.2988 8.03906 72.1816 7.84375C72.071 7.64844 71.9701 7.46615 71.8789 7.29688C71.7943 7.1276 71.7161 7.01693 71.6445 6.96484C71.5534 7.16016 71.4395 7.32617 71.3027 7.46289C71.166 7.59961 71.013 7.71029 70.8438 7.79492C70.6745 7.87956 70.4987 7.93815 70.3164 7.9707C70.1341 8.00326 69.9518 8.01302 69.7695 8V6.19336ZM75.7852 6.19336C76.2799 6.18685 76.6901 6.16732 77.0156 6.13477C77.3477 6.0957 77.5853 6.05013 77.7285 5.99805C77.5723 5.85482 77.4648 5.6888 77.4062 5.5C77.3542 5.30469 77.3477 5.09635 77.3867 4.875C77.5104 4.54948 77.7057 4.21419 77.9727 3.86914C78.2396 3.52409 78.5553 3.18555 78.9199 2.85352C79.2975 2.52148 79.6296 2.25781 79.916 2.0625C80.209 1.86719 80.4564 1.75977 80.6582 1.74023H80.6484C80.8503 1.66862 81.0553 1.63281 81.2637 1.63281C81.4915 1.63281 81.7161 1.66862 81.9375 1.74023C82.1589 1.80534 82.3607 1.89974 82.543 2.02344C82.7253 2.14714 82.875 2.29362 82.9922 2.46289C83.1094 2.63216 83.1745 2.81771 83.1875 3.01953V3.00977C83.2786 3.79753 82.5332 4.79688 80.9512 6.00781C81.1139 6.0599 81.3874 6.10547 81.7715 6.14453C82.1556 6.17708 82.6276 6.19336 83.1875 6.19336V8C82.4909 8 81.8073 7.9349 81.1367 7.80469C80.4727 7.67448 79.8151 7.4401 79.1641 7.10156C78.5781 7.36198 77.9987 7.57031 77.4258 7.72656C76.8529 7.8763 76.306 7.96745 75.7852 8V6.19336ZM80.4238 4.95312C80.9837 4.60156 81.3613 4.2793 81.5566 3.98633C81.7585 3.68685 81.8171 3.45898 81.7324 3.30273V3.3125C81.6152 3.11068 81.3809 3.00977 81.0293 3.00977C80.9186 3.00977 80.7982 3.02279 80.668 3.04883C80.5443 3.06836 80.4108 3.10417 80.2676 3.15625C79.8965 3.29297 79.5091 3.63802 79.1055 4.19141C79.0273 4.30208 78.9655 4.40951 78.9199 4.51367C78.8809 4.61133 78.8613 4.70247 78.8613 4.78711C78.8613 5.01497 79.0339 5.21029 79.3789 5.37305V5.38281C79.4896 5.39583 79.6296 5.36654 79.7988 5.29492C79.9746 5.22331 80.1829 5.10938 80.4238 4.95312ZM82.9824 6.19336C83.2689 6.19336 83.5326 6.17057 83.7734 6.125C84.0208 6.07292 84.2422 5.98177 84.4375 5.85156C84.5872 5.69531 84.7109 5.50651 84.8086 5.28516C84.9128 5.05729 84.9616 4.8099 84.9551 4.54297C84.9421 3.92448 85.1732 3.60547 85.6484 3.58594C86.0846 3.55339 86.5046 3.77474 86.9082 4.25C87.2988 4.71224 87.4746 5.25911 87.4355 5.89062C87.2337 6.67188 86.5957 7.23503 85.5215 7.58008C84.9811 7.74284 84.4993 7.85352 84.0762 7.91211C83.653 7.9707 83.2884 8 82.9824 8V6.19336Z" fill="black"/>
</svg>
